# xmcd CD database file
#
# Track frame offsets:
#	150
#	13632
#	25372
#	36402
#	48192
#	62650
#
# Disc length: 1019 seconds
#
# Revision: 2
# Processed by: cddbd v1.5.1PL0 Copyright (c) Steve Scherf et al.
# Submitted via: CDex 1.50
#
DISCID=4703f906
DTITLE=Stompin' Tom Connors - The Confederation Bridge
DYEAR=1997
DGENRE=Country
TTITLE0=The Confederation Bridge
TTITLE1=My Home Cradled Out In The Waves
TTITLE2=Bud The Spud
TTITLE3=Song Of The Irish Moss
TTITLE4=Skinners Pond Teapot
TTITLE5=J.R.'s Bar
EXTD=YEAR: 1997
EXTT0=
EXTT1=
EXTT2=
EXTT3=
EXTT4=
EXTT5=
PLAYORDER=
